<svg xmlns="http://www.w3.org/2000/svg" viewBox="0 0 200 200" style="fill: rgb(255, 255, 255); width: 28px; height: 28px; padding: 8px; filter: drop-shadow(rgba(0, 0, 0, 0.25) 0px 0.5px 1px);"><path d="M168.518 17H32.152C23.78 17 17 23.78 17 32.152v136.366c0 8.372 6.78 15.152 15.152 15.152h136.366c8.372 0 15.152-6.78 15.152-15.152V32.152c0-8.372-6.78-15.152-15.152-15.152m-11.045 128.79H112.54v-2.522l10.523-9.258V81.168L97.221 145.79h-4.038L64.35 80.66v46.115l13.182 16.493v2.522H43.197v-2.522l13.63-16.493V71.91L44.713 56.766v-1.849h33.152l25.75 55.706 22.213-55.706h31.47v1.849L145.79 66.44v67.57l11.683 9.258z"></path></svg>